<svg xmlns="http://www.w3.org/2000/svg" xmlns:xlink="http://www.w3.org/1999/xlink" aria-hidden="true" role="img" class="iconify iconify--logos" width="35.93" height="32" preserveAspectRatio="xMidYMid meet" viewBox="0 0 256 228"><path fill="#00D8FF" d="M210.483 73.824a171.49 171.49 0 0 0-8.24-2.597c.465-1.9.893-3.777 1.273-5.621c6.238-30.281 2.16-54.676-11.769-67.708c-13.355-12.6-35.196-15.495-59.04-7.691a171.23 171.23 0 0 0-6.685 2.314a155.866 155.866 0 0 0-4.24-5.809C101.483-6.206 70.126-2.776 50.378 15.706C30.106 34.748 23.407 65.13 30.64 97.592a170.974 170.974 0 0 0 3.28 11.03a145.376 145.376 0 0 0-4.728 4.666C12.393 124.041 0 140.934 0 158.027c0 25.75 27.76 46.638 62.013 46.638c7.392 0 14.567-1.02 21.338-2.91a145.843 145.843 0 0 0 5.98 6.422c27.378 27.737 67.026 38.156 99.21 28.54c32.808-9.8 56.48-36.777 59.463-68.873c.34-3.6.4-7.197.223-10.748a145.38 145.38 0 0 0 7.716-6.3c22.26-22.558 28.584-53.894 17.893-81.363Zm-11.704 98.49c-1.762 18.664-16.832 34.645-37.14 41.716c-20.307 7.07-42.585 4.233-60.249-7.534c-1.38-.93-2.73-1.89-4.05-2.87l-.16-.12c-1.16-.85-2.3-1.72-3.41-2.62l-.12-.1a144.773 144.773 0 0 1-6.37-5.39l-.36-.33a145.376 145.376 0 0 1-3.28-3.15l-.3-.3c-1.01-1.02-2-2.06-2.97-3.11l-.24-.26c-.9-.98-1.78-1.98-2.64-3l-.2-.24c-.78-.9-1.54-1.82-2.28-2.75l-.15-.19c-17.664-22.1-25.35-50.15-20.95-76.793l.12-.66c.08-.44.16-.88.25-1.32l.08-.4c.1-.5.2-1 .31-1.5l.1-.45c.12-.52.25-1.03.38-1.55l.1-.38c.15-.58.31-1.15.48-1.72l.1-.33c.19-.65.39-1.29.6-1.93l.12-.35c.24-.73.49-1.45.76-2.16l.15-.38c.3-.75.61-1.49.94-2.22l.19-.42c.36-.8.74-1.59 1.13-2.37l.22-.42c.43-.82.88-1.63 1.35-2.43l.26-.43c.52-.83 1.06-1.65 1.62-2.45l.31-.43a145.71 145.71 0 0 1 3.78-4.9l.22-.27c.5-.6 1.01-1.19 1.53-1.78l.28-.31c.58-.64 1.17-1.27 1.77-1.88l.33-.34c.65-.66 1.31-1.31 1.98-1.94l.38-.36c19.15-18.03 46.78-23.15 70.88-13.58c24.1 9.57 42.12 30.78 47.4 56.25c.46 2.23.8 4.47 1.02 6.7c-6.24-1.2-12.64-1.84-19.13-1.9h-1.63c-6.78.07-13.46.78-19.95 2.1c-28.28 5.78-52.75 20.98-69.12 42.72a144.773 144.773 0 0 0-6.37 8.12c-20.95 28.1-28.58 63.9-20.95 97.12c-20.31-7.07-37.14-21.8-46.78-40.48c-9.64-18.68-11.38-39.5-4.9-58.8c6.48-19.3 20.31-35.2 38.64-45.1c18.33-9.9 39.5-13.1 59.04-8.9c19.54 4.2 36.78 14.57 48.9 29.1c12.12 14.53 18.43 32.4 17.66 50.53Z"></path><path fill="#00D8FF" d="M86.668 175.297c-1.762 18.664-16.832 34.645-37.14 41.716c-20.307 7.07-42.585 4.233-60.249-7.534C-10.961 207.55-12.5 205.3-13.978 203l-.16-.12c-1.16-.85-2.3-1.72-3.41-2.62l-.12-.1a144.773 144.773 0 0 1-6.37-5.39c15.664 22.1 25.35 50.15 20.95 76.793l.12-.66c.08-.44.16-.88.25-1.32l.08-.4c.1-.5.2-1 .31-1.5l.1-.45c.12-.52.25-1.03.38-1.55l.1-.38c.15-.58.31-1.15.48-1.72l.1-.33c.19-.65.39-1.29.6-1.93l.12-.35c.24-.73.49-1.45.76-2.16l.15-.38c.3-.75.61-1.49.94-2.22l.19-.42c.36-.8.74-1.59 1.13-2.37l.22-.42c.43-.82.88-1.63 1.35-2.43l.26-.43c.52-.83 1.06-1.65 1.62-2.45l.31-.43a145.71 145.71 0 0 1 3.78-4.9l.22-.27c.5-.6 1.01-1.19 1.53-1.78l.28-.31c.58-.64 1.17-1.27 1.77-1.88l.33-.34c.65-.66 1.31-1.31 1.98-1.94l.38-.36c19.15-18.03 46.78-23.15 70.88-13.58c24.1 9.57 42.12 30.78 47.4 56.25c.46 2.23.8 4.47 1.02 6.7c-6.24-1.2-12.64-1.84-19.13-1.9h-1.63c-6.78.07-13.46.78-19.95 2.1c-28.28 5.78-52.75 20.98-69.12 42.72a144.773 144.773 0 0 0-6.37 8.12c-20.95 28.1-28.58 63.9-20.95 97.12c-20.31-7.07-37.14-21.8-46.78-40.48c-9.64-18.68-11.38-39.5-4.9-58.8c6.48-19.3 20.31-35.2 38.64-45.1c18.33-9.9 39.5-13.1 59.04-8.9c19.54 4.2 36.78 14.57 48.9 29.1c12.12 14.53 18.43 32.4 17.66 50.53Z"></path></svg>

